<?xml version="1.0" standalone="no"?>
<!DOCTYPE svg PUBLIC "-//W3C//DTD SVG 20010904//EN"
 "http://www.w3.org/TR/2001/REC-SVG-20010904/DTD/svg10.dtd">
<svg version="1.0" xmlns="http://www.w3.org/2000/svg"
 width="259.000000pt" height="278.000000pt" viewBox="0 0 259.000000 278.000000"
 preserveAspectRatio="xMidYMid meet">

<g transform="translate(0.000000,278.000000) scale(0.100000,-0.100000)"
fill="#E0E0E0" stroke="none">
<path d="M1610 2750 c-8 -5 -30 -7 -47 -4 -42 8 -44 -12 -3 -21 17 -4 30 -13
30 -21 0 -8 -53 -70 -119 -138 -65 -68 -122 -133 -125 -144 -4 -13 1 -36 14
-61 11 -22 20 -53 20 -69 0 -31 26 -62 53 -62 22 0 147 -107 147 -126 0 -9
-11 -30 -24 -47 -37 -50 -62 -105 -85 -192 -12 -44 -30 -93 -40 -110 -10 -16
-26 -51 -36 -77 -10 -26 -24 -53 -33 -60 -22 -19 -156 -26 -322 -18 -120 6
-152 11 -187 29 -127 64 -139 255 -21 321 32 18 51 21 96 18 46 -4 60 -10 83
-36 56 -62 50 -128 -13 -149 -46 -15 -89 -4 -105 27 -18 36 -2 65 36 65 17 0
31 3 31 7 0 19 -60 7 -74 -14 -23 -32 -20 -55 10 -83 39 -36 96 -34 135 4 35
35 38 79 11 130 -48 89 -194 96 -265 12 -48 -58 -60 -147 -28 -216 25 -55 66
-90 135 -118 l58 -24 -48 -6 c-27 -4 -124 -9 -216 -13 -92 -4 -165 -10 -163
-14 3 -4 53 -27 112 -50 136 -53 191 -85 206 -117 10 -22 8 -28 -12 -44 -15
-12 -31 -17 -44 -13 -14 4 -25 0 -36 -14 -9 -11 -33 -23 -53 -26 -35 -6 -38
-5 -38 16 0 37 -17 8 -33 -57 -9 -34 -11 -61 -6 -63 20 -8 9 -52 -15 -63 -30
-14 -76 -4 -76 17 0 14 -2 14 -22 0 -16 -12 -47 -16 -115 -16 -50 0 -94 -3
-96 -7 -3 -5 -2 -104 1 -220 l5 -213 1008 0 1009 0 0 60 0 60 -100 0 -100 0 0
50 c0 45 3 51 31 65 l30 16 -34 62 c-46 82 -106 202 -151 304 -37 82 -38 89
-50 279 l-5 71 100 18 c92 17 100 17 117 2 23 -21 42 -21 86 -3 21 9 36 23 40
39 3 13 15 27 27 30 27 7 15 27 -17 27 -45 0 -61 46 -70 194 -7 128 -8 131
-36 158 -21 19 -28 33 -23 47 7 24 -37 61 -75 61 -19 0 -30 7 -38 25 -12 25
-47 47 -94 59 -19 4 -28 13 -28 26 0 13 -9 22 -27 26 -55 12 -54 10 -47 77 7
73 -10 124 -53 152 -54 35 -137 9 -196 -61 l-28 -33 25 -34 c14 -19 26 -44 26
-55 0 -13 6 -22 15 -22 8 0 22 -12 32 -26 13 -20 22 -25 44 -20 36 7 53 -13
39 -48 -7 -20 -16 -26 -39 -26 -42 0 -140 67 -147 102 -4 15 -19 38 -34 52
l-29 25 36 73 c54 109 77 138 133 169 l50 28 153 -16 c83 -9 155 -21 159 -27
4 -6 8 -32 8 -58 0 -26 4 -49 9 -52 4 -3 19 21 32 54 13 33 26 60 29 60 3 0 7
20 8 44 1 42 0 45 -28 51 -37 8 -50 0 -50 -31 0 -22 -4 -24 -47 -24 -99 1
-273 27 -291 44 -20 18 -69 21 -92 6z m375 -733 c11 -13 27 -17 52 -15 24 2
38 -2 43 -12 63 -125 98 -215 90 -229 -32 -57 -55 -71 -139 -87 -92 -17 -111
-14 -111 16 0 11 -12 49 -26 85 l-26 66 21 58 c11 32 21 77 21 100 0 23 5 52
11 64 l12 21 18 -25 c10 -13 25 -32 34 -42z m-647 -444 c-57 -112 -98 -241
-98 -311 0 -39 3 -44 30 -53 36 -13 35 -11 6 -159 l-23 -115 21 -5 c49 -13 12
-80 -44 -80 -47 0 -53 28 -46 221 8 181 3 219 -24 219 -9 0 -29 9 -43 20 -14
11 -40 20 -60 20 -115 0 -42 134 98 179 39 13 77 31 86 41 9 10 31 20 50 23
19 2 38 5 42 5 5 1 7 -1 5 -5z m430 -250 c88 -160 144 -294 178 -420 2 -7 13
-13 24 -13 26 0 26 -4 -11 -55 l-31 -44 -72 1 c-42 1 -90 -6 -117 -15 -87 -31
-274 -12 -290 29 -13 32 -10 72 6 88 12 12 14 33 9 119 -8 127 -2 157 30 157
65 0 124 38 149 98 9 20 25 58 36 85 11 26 26 47 33 47 7 0 32 -35 56 -77z"/>
<path d="M522 1230 c0 -14 2 -19 5 -12 2 6 2 18 0 25 -3 6 -5 1 -5 -13z"/>
<path d="M595 571 c-65 -7 -78 -22 -55 -65 12 -24 9 -260 -5 -308 -6 -23 -3
-29 18 -39 15 -7 41 -9 61 -5 29 6 36 11 36 31 0 13 -4 27 -10 30 -12 8 -13
115 -1 115 16 0 28 -25 35 -70 11 -77 26 -110 51 -116 48 -12 92 40 62 74 -8
9 -17 37 -21 62 -4 25 -16 54 -26 65 -20 21 -20 21 0 60 24 46 25 74 6 120
-15 35 -43 56 -73 53 -10 -1 -45 -4 -78 -7z m69 -77 c15 -38 3 -94 -20 -94
-10 0 -14 15 -14 55 0 40 4 55 14 55 8 0 17 -7 20 -16z"/>
<path d="M833 570 c-24 -10 -32 -53 -13 -65 13 -8 13 -282 0 -290 -5 -3 -10
-15 -10 -26 0 -49 121 -50 128 0 2 13 -1 28 -7 34 -14 14 -15 283 -1 292 17
10 11 44 -9 55 -23 12 -58 12 -88 0z"/>
<path d="M970 551 c-16 -35 -22 -104 -11 -120 12 -19 36 -1 45 34 4 14 11 25
16 25 6 0 10 -52 10 -130 0 -107 -3 -130 -16 -138 -27 -15 -13 -55 23 -65 73
-21 138 19 99 62 -13 14 -16 42 -16 144 0 70 4 127 8 127 5 0 15 -15 23 -32 8
-18 21 -33 29 -33 20 0 25 72 8 115 l-13 32 -97 1 c-93 2 -98 1 -108 -22z"/>
<path d="M1293 568 c-6 -7 -13 -38 -17 -68 -12 -93 -56 -253 -78 -284 -32 -45
-3 -77 57 -62 30 8 39 34 19 57 -22 24 -10 39 31 39 37 0 54 -15 36 -33 -18
-18 -13 -45 10 -58 27 -14 108 -6 119 12 6 9 12 9 25 -4 21 -22 88 -22 109 -1
19 19 20 16 0 58 -19 40 -13 76 10 56 8 -6 25 -36 37 -66 l23 -55 45 3 c34 2
47 8 49 20 2 9 -22 68 -53 131 l-57 114 21 40 c11 22 29 43 41 46 13 3 20 13
20 31 0 30 -37 44 -79 30 -22 -8 -27 -17 -33 -63 -3 -29 -13 -61 -22 -69 -15
-15 -16 -14 -16 13 0 16 6 44 12 63 11 30 11 35 -7 48 -27 20 -72 17 -95 -6
-19 -19 -19 -22 -5 -50 18 -35 21 -239 4 -289 l-11 -31 -19 24 c-11 14 -33 74
-50 133 -16 59 -37 128 -46 153 -25 71 -57 98 -80 68z m34 -211 c5 -33 3 -37
-16 -37 -17 0 -21 6 -21 29 0 70 26 75 37 8z"/>
<path d="M1880 573 c-114 -42 -136 -303 -33 -393 48 -42 93 -37 139 15 114
129 30 427 -106 378z m52 -138 c18 -53 23 -161 9 -184 -16 -25 -40 -3 -56 54
-18 60 -24 153 -11 173 16 26 41 7 58 -43z"/>
<path d="M2058 573 c-24 -6 -33 -41 -15 -61 8 -9 34 -89 57 -177 41 -156 60
-199 79 -180 5 6 31 84 56 175 30 106 54 171 66 182 44 38 7 80 -57 64 -24 -6
-26 -10 -20 -49 6 -45 -13 -138 -31 -144 -14 -5 -45 119 -33 131 16 16 11 45
-9 56 -20 10 -61 12 -93 3z"/>
<path d="M273 554 c-3 -8 0 -25 6 -38 11 -20 11 -225 -1 -321 l-3 -30 82 -3
c48 -2 92 2 104 8 48 26 64 131 28 189 -17 28 -19 39 -10 58 20 43 14 101 -14
128 -22 22 -32 25 -105 25 -64 0 -82 -3 -87 -16z m133 -68 c9 -38 1 -81 -16
-81 -16 0 -27 63 -16 91 8 22 25 17 32 -10z m4 -165 c5 -11 10 -31 10 -45 0
-64 -35 -77 -45 -16 -11 65 11 104 35 61z"/>
</g>
</svg>
